# Blender 4.1.1
# www.blender.org
mtllib holder_base_top.mtl
o holder_top
v -0.953248 2.300000 1.000000
v -1.000000 2.300000 0.953248
v -1.000000 2.320000 0.953248
v -0.953248 2.320000 1.000000
v -1.000000 2.300000 -0.953248
v -0.953248 2.300000 -1.000000
v -0.953248 2.320000 -1.000000
v -1.000000 2.320000 -0.953248
v 1.000000 2.300000 0.953248
v 0.953248 2.300000 1.000000
v 0.953248 2.320000 1.000000
v 1.000000 2.320000 0.953248
v 0.953248 2.300000 -1.000000
v 1.000000 2.300000 -0.953248
v 1.000000 2.320000 -0.953248
v 0.953248 2.320000 -1.000000
v -0.494975 2.320000 -0.494975
v -0.267878 2.320000 -0.646716
v 0.267878 2.320000 -0.646716
v 0.000000 2.320000 -0.700000
v 0.700000 2.320000 0.000000
v 0.646716 2.320000 -0.267878
v 0.646716 2.320000 0.267878
v 0.494975 2.320000 -0.494975
v -0.700000 2.320000 0.000000
v -0.646716 2.320000 0.267878
v -0.646716 2.320000 -0.267878
v -0.267878 2.320000 0.646716
v 0.267878 2.320000 0.646716
v 0.494975 2.320000 0.494975
v 0.000000 2.320000 0.700000
v -0.494975 2.320000 0.494975
v -0.700000 2.300000 0.000000
v -0.646716 2.300000 0.267878
v -0.646716 2.300000 -0.267878
v -0.267878 2.300000 -0.646716
v 0.267878 2.300000 -0.646716
v 0.494975 2.300000 -0.494975
v 0.000000 2.300000 -0.700000
v -0.494975 2.300000 -0.494975
v -0.267878 2.300000 0.646716
v -0.494975 2.300000 0.494975
v 0.267878 2.300000 0.646716
v 0.000000 2.300000 0.700000
v 0.700000 2.300000 0.000000
v 0.646716 2.300000 -0.267878
v 0.494975 2.300000 0.494975
v 0.646716 2.300000 0.267878
vn -0.0000 -0.0000 1.0000
vn 1.0000 -0.0000 -0.0000
vn -0.0000 1.0000 -0.0000
vn -1.0000 -0.0000 -0.0000
vn -0.0000 -0.0000 -1.0000
vn -0.7071 -0.0000 0.7071
vn -0.7071 -0.0000 -0.7071
vn 0.7071 -0.0000 -0.7071
vn 0.7071 -0.0000 0.7071
vn -0.0000 -1.0000 -0.0000
vn -0.1951 -0.0000 0.9808
vn -0.5556 -0.0000 0.8315
vn -0.8315 -0.0000 0.5556
vn -0.9808 -0.0000 0.1951
vn -0.9808 -0.0000 -0.1951
vn -0.8315 -0.0000 -0.5556
vn -0.5556 -0.0000 -0.8315
vn -0.1951 -0.0000 -0.9808
vn 0.1951 -0.0000 -0.9808
vn 0.5556 -0.0000 -0.8315
vn 0.8315 -0.0000 -0.5556
vn 0.9808 -0.0000 -0.1951
vn 0.9808 -0.0000 0.1951
vn 0.8315 -0.0000 0.5556
vn 0.5556 -0.0000 0.8315
vn 0.1951 -0.0000 0.9808
vt 0.375000 0.755844
vt 0.625000 0.755844
vt 0.625000 0.994156
vt 0.375000 0.994156
vt 0.375000 0.505844
vt 0.625000 0.505844
vt 0.625000 0.744156
vt 0.375000 0.744156
vt 0.875000 0.505844
vt 0.875000 0.744156
vt 0.869156 0.750000
vt 0.811872 0.686872
vt 0.830839 0.658485
vt 0.837500 0.625000
vt 0.830839 0.591515
vt 0.811872 0.563128
vt 0.630844 0.750000
vt 0.630844 0.500000
vt 0.869156 0.500000
vt 0.783485 0.544161
vt 0.750000 0.537500
vt 0.716515 0.544161
vt 0.688128 0.563128
vt 0.669161 0.591515
vt 0.662500 0.625000
vt 0.669161 0.658485
vt 0.688128 0.686872
vt 0.716515 0.705839
vt 0.750000 0.712500
vt 0.783485 0.705840
vt 0.375000 0.005844
vt 0.625000 0.005844
vt 0.625000 0.244156
vt 0.375000 0.244156
vt 0.375000 0.255844
vt 0.625000 0.255844
vt 0.625000 0.494156
vt 0.375000 0.494156
vt 0.375000 0.000000
vt 0.625000 0.000000
vt 0.311872 0.563128
vt 0.369156 0.750000
vt 0.311872 0.686872
vt 0.330839 0.658485
vt 0.337500 0.625000
vt 0.330839 0.591515
vt 0.130844 0.750000
vt 0.125000 0.744156
vt 0.125000 0.505844
vt 0.130844 0.500000
vt 0.369156 0.500000
vt 0.283485 0.544161
vt 0.250000 0.537500
vt 0.216515 0.544161
vt 0.188128 0.563128
vt 0.169161 0.591515
vt 0.162500 0.625000
vt 0.169161 0.658485
vt 0.188128 0.686872
vt 0.216515 0.705839
vt 0.250000 0.712500
vt 0.283485 0.705840
vt 0.937500 0.900000
vt 0.937500 0.950000
vt 1.000000 0.950000
vt 1.000000 0.900000
vt 0.875000 0.900000
vt 0.875000 0.950000
vt 0.812500 0.950000
vt 0.812500 0.900000
vt 0.750000 0.950000
vt 0.750000 0.900000
vt 0.687500 0.950000
vt 0.687500 0.900000
vt 0.625000 0.950000
vt 0.625000 0.900000
vt 0.562500 0.950000
vt 0.562500 0.900000
vt 0.500000 0.950000
vt 0.500000 0.900000
vt 0.437500 0.950000
vt 0.437500 0.900000
vt 0.375000 0.950000
vt 0.375000 0.900000
vt 0.312500 0.900000
vt 0.312500 0.950000
vt 0.250000 0.900000
vt 0.250000 0.950000
vt 0.187500 0.900000
vt 0.187500 0.950000
vt 0.125000 0.900000
vt 0.125000 0.950000
vt 0.062500 0.900000
vt 0.062500 0.950000
vt 0.000000 0.900000
vt 0.000000 0.950000
s 0
usemtl Material.001
f 10/1/1 11/2/1 4/3/1 1/4/1
f 14/5/2 15/6/2 12/7/2 9/8/2
f 8/9/3 3/10/3 4/11/3 32/12/3 26/13/3 25/14/3 27/15/3 17/16/3
f 32/12/3 4/11/3 11/17/3 12/7/3 15/6/3 16/18/3 7/19/3 8/9/3 17/16/3 18/20/3 20/21/3 19/22/3 24/23/3 22/24/3 21/25/3 23/26/3 30/27/3 29/28/3 31/29/3 28/30/3
f 2/31/4 3/32/4 8/33/4 5/34/4
f 6/35/5 7/36/5 16/37/5 13/38/5
f 1/39/6 4/40/6 3/32/6 2/31/6
f 7/36/7 6/35/7 5/34/7 8/33/7
f 15/6/8 14/5/8 13/38/8 16/37/8
f 11/2/9 10/1/9 9/8/9 12/7/9
f 38/41/10 14/5/10 9/8/10 10/42/10 47/43/10 48/44/10 45/45/10 46/46/10
f 10/42/10 1/47/10 2/48/10 5/49/10 6/50/10 13/51/10 14/5/10 38/41/10 37/52/10 39/53/10 36/54/10 40/55/10 35/56/10 33/57/10 34/58/10 42/59/10 41/60/10 44/61/10 43/62/10 47/43/10
f 37/63/11 19/64/11 20/65/11 39/66/11
f 38/67/12 24/68/12 19/64/12 37/63/12
f 22/69/13 24/68/13 38/67/13 46/70/13
f 21/71/14 22/69/14 46/70/14 45/72/14
f 23/73/15 21/71/15 45/72/15 48/74/15
f 30/75/16 23/73/16 48/74/16 47/76/16
f 29/77/17 30/75/17 47/76/17 43/78/17
f 31/79/18 29/77/18 43/78/18 44/80/18
f 28/81/19 31/79/19 44/80/19 41/82/19
f 32/83/20 28/81/20 41/82/20 42/84/20
f 34/85/21 26/86/21 32/83/21 42/84/21
f 33/87/22 25/88/22 26/86/22 34/85/22
f 35/89/23 27/90/23 25/88/23 33/87/23
f 40/91/24 17/92/24 27/90/24 35/89/24
f 36/93/25 18/94/25 17/92/25 40/91/25
f 39/95/26 20/96/26 18/94/26 36/93/26
