# Blender 4.1.1
# www.blender.org
mtllib holder_top_splitted_3.mtl
o base_top_3
v 0.000000 2.100000 0.700000
v -0.267878 2.100000 0.646716
v 0.000000 2.300000 0.700000
v 0.000000 2.100000 1.000000
v -0.408277 2.100000 1.000000
v 0.000000 2.300000 1.000000
v -0.408277 2.300000 1.000000
v -0.269266 2.300000 0.645788
v -0.267878 2.300000 0.646716
v -0.269266 2.100000 0.645788
vn -0.0000 -1.0000 -0.0000
vn 0.1951 -0.0000 -0.9808
vn 1.0000 -0.0000 -0.0000
vn -0.0000 -0.0000 1.0000
vn -0.0000 1.0000 -0.0000
vn 0.5556 -0.0000 -0.8315
vn -0.9309 -0.0000 -0.3653
vt 0.875000 0.625000
vt 0.875000 0.676035
vt 0.830724 0.658658
vt 0.830839 0.658485
vt 0.837500 0.625000
vt 0.250000 0.900000
vt 0.250000 0.950000
vt 0.312500 0.950000
vt 0.312500 0.900000
vt 0.375000 0.125000
vt 0.375000 0.073965
vt 0.625000 0.073965
vt 0.625000 0.125000
vt 0.169276 0.658658
vt 0.125000 0.676035
vt 0.125000 0.625000
vt 0.162500 0.625000
vt 0.169161 0.658485
vt 0.312882 0.950000
vt 0.312882 0.900000
vt 0.000000 0.000000
s 0
usemtl Material.002
f 4/1/1 5/2/1 10/3/1 2/4/1 1/5/1
f 3/6/2 1/7/2 2/8/2 9/9/2
f 3/6/3 6/10/3 4/1/3 1/7/3
f 7/11/4 5/12/4 4/13/4 6/10/4
f 8/14/5 7/15/5 6/16/5 3/17/5 9/18/5
f 9/9/6 2/8/6 10/19/6 8/20/6
f 10/21/7 7/21/7 8/21/7
f 10/21/7 5/21/7 7/21/7
