# Blender 4.1.1
# www.blender.org
mtllib base_2.mtl
o Cylinder
v 0.000000 0.017878 0.058798
v 0.000000 -0.017878 0.058798
v -0.011471 0.017878 0.057668
v -0.011471 -0.017878 0.057668
v -0.022501 0.017878 0.054322
v -0.022501 -0.017878 0.054322
v -0.032666 0.017878 0.048889
v -0.032666 -0.017878 0.048889
v -0.041576 0.017878 0.041576
v -0.041576 -0.017878 0.041576
v -0.048889 0.017878 0.032666
v -0.048889 -0.017878 0.032666
v -0.054322 0.017878 0.022501
v -0.054322 -0.017878 0.022501
v -0.057668 0.017878 0.011471
v -0.057668 -0.017878 0.011471
v -0.058798 0.017878 0.000000
v -0.058798 -0.017878 0.000000
v -0.057668 0.017878 -0.011471
v -0.057668 -0.017878 -0.011471
v -0.054322 0.017878 -0.022501
v -0.054322 -0.017878 -0.022501
v -0.048889 0.017878 -0.032666
v -0.048889 -0.017878 -0.032666
v -0.041576 0.017878 -0.041576
v -0.041576 -0.017878 -0.041576
v -0.032666 0.017878 -0.048889
v -0.032666 -0.017878 -0.048889
v -0.022501 0.017878 -0.054322
v -0.022501 -0.017878 -0.054322
v -0.011471 0.017878 -0.057668
v -0.011471 -0.017878 -0.057668
v 0.000000 0.017878 -0.058798
v 0.000000 -0.017878 -0.058798
v 0.011471 0.017878 -0.057668
v 0.011471 -0.017878 -0.057668
v 0.022501 0.017878 -0.054322
v 0.022501 -0.017878 -0.054322
v 0.032666 0.017878 -0.048889
v 0.032666 -0.017878 -0.048889
v 0.041576 0.017878 -0.041576
v 0.041576 -0.017878 -0.041576
v 0.048889 0.017878 -0.032666
v 0.048889 -0.017878 -0.032666
v 0.054322 0.017878 -0.022501
v 0.054322 -0.017878 -0.022501
v 0.057668 0.017878 -0.011471
v 0.057668 -0.017878 -0.011471
v 0.058798 0.017878 0.000000
v 0.058798 -0.017878 0.000000
v 0.057668 0.017878 0.011471
v 0.057668 -0.017878 0.011471
v 0.054322 0.017878 0.022501
v 0.054322 -0.017878 0.022501
v 0.048889 0.017878 0.032666
v 0.048889 -0.017878 0.032666
v 0.041576 0.017878 0.041576
v 0.041576 -0.017878 0.041576
v 0.032666 0.017878 0.048889
v 0.032666 -0.017878 0.048889
v 0.022501 0.017878 0.054322
v 0.022501 -0.017878 0.054322
v 0.011471 0.017878 0.057668
v 0.011471 -0.017878 0.057668
v 0.000000 0.017878 0.047626
v 0.000000 -0.015549 0.050666
v -0.009291 0.017878 0.046711
v -0.009884 -0.015549 0.049693
v -0.018226 0.017878 0.044001
v -0.019389 -0.015549 0.046809
v -0.026460 0.017878 0.039600
v -0.028149 -0.015549 0.042127
v -0.033677 0.017878 0.033677
v -0.035826 -0.015549 0.035826
v -0.039600 0.017878 0.026460
v -0.042127 -0.015549 0.028149
v -0.044001 0.017878 0.018226
v -0.046809 -0.015549 0.019389
v -0.046711 0.017878 0.009291
v -0.049693 -0.015549 0.009884
v -0.047626 0.017878 0.000000
v -0.050666 -0.015549 0.000000
v -0.046711 0.017878 -0.009291
v -0.049693 -0.015549 -0.009884
v -0.044001 0.017878 -0.018226
v -0.046809 -0.015549 -0.019389
v -0.039600 0.017878 -0.026460
v -0.042127 -0.015549 -0.028149
v -0.033677 0.017878 -0.033677
v -0.035826 -0.015549 -0.035826
v -0.026460 0.017878 -0.039600
v -0.028149 -0.015549 -0.042127
v -0.018226 0.017878 -0.044001
v -0.019389 -0.015549 -0.046809
v -0.009291 0.017878 -0.046711
v -0.009884 -0.015549 -0.049693
v 0.000000 0.017878 -0.047626
v 0.000000 -0.015549 -0.050666
v 0.009291 0.017878 -0.046711
v 0.009884 -0.015549 -0.049693
v 0.018226 0.017878 -0.044001
v 0.019389 -0.015549 -0.046809
v 0.026460 0.017878 -0.039600
v 0.028149 -0.015549 -0.042127
v 0.033677 0.017878 -0.033677
v 0.035826 -0.015549 -0.035826
v 0.039600 0.017878 -0.026460
v 0.042127 -0.015549 -0.028149
v 0.044001 0.017878 -0.018226
v 0.046809 -0.015549 -0.019389
v 0.046711 0.017878 -0.009291
v 0.049693 -0.015549 -0.009884
v 0.047626 0.017878 0.000000
v 0.050666 -0.015549 0.000000
v 0.046711 0.017878 0.009291
v 0.049693 -0.015549 0.009884
v 0.044001 0.017878 0.018226
v 0.046809 -0.015549 0.019389
v 0.039600 0.017878 0.026460
v 0.042127 -0.015549 0.028149
v 0.033677 0.017878 0.033677
v 0.035826 -0.015549 0.035826
v 0.026460 0.017878 0.039600
v 0.028149 -0.015549 0.042127
v 0.018226 0.017878 0.044001
v 0.019389 -0.015549 0.046809
v 0.009291 0.017878 0.046711
v 0.009884 -0.015549 0.049693
v 0.000000 0.017878 0.058798
v -0.011471 0.017878 0.057668
v -0.011471 -0.017878 0.057668
v 0.000000 -0.017878 0.058798
v -0.022501 0.017878 0.054322
v -0.022501 -0.017878 0.054322
v -0.032666 0.017878 0.048889
v -0.032666 -0.017878 0.048889
v -0.041576 0.017878 0.041576
v -0.041576 -0.017878 0.041576
v -0.048889 0.017878 0.032666
v -0.048889 -0.017878 0.032666
v -0.054322 0.017878 0.022501
v -0.054322 -0.017878 0.022501
v -0.057668 0.017878 0.011471
v -0.057668 -0.017878 0.011471
v -0.058798 0.017878 0.000000
v -0.058798 -0.017878 0.000000
v -0.057668 0.017878 -0.011471
v -0.057668 -0.017878 -0.011471
v -0.054322 0.017878 -0.022501
v -0.054322 -0.017878 -0.022501
v -0.048889 0.017878 -0.032666
v -0.048889 -0.017878 -0.032666
v -0.041576 0.017878 -0.041576
v -0.041576 -0.017878 -0.041576
v -0.032666 0.017878 -0.048889
v -0.032666 -0.017878 -0.048889
v -0.022501 0.017878 -0.054322
v -0.022501 -0.017878 -0.054322
v -0.011471 0.017878 -0.057668
v -0.011471 -0.017878 -0.057668
v 0.000000 0.017878 -0.058798
v 0.000000 -0.017878 -0.058798
v 0.011471 0.017878 -0.057668
v 0.011471 -0.017878 -0.057668
v 0.022501 0.017878 -0.054322
v 0.022501 -0.017878 -0.054322
v 0.032666 0.017878 -0.048889
v 0.032666 -0.017878 -0.048889
v 0.041576 0.017878 -0.041576
v 0.041576 -0.017878 -0.041576
v 0.048889 0.017878 -0.032666
v 0.048889 -0.017878 -0.032666
v 0.054322 0.017878 -0.022501
v 0.054322 -0.017878 -0.022501
v 0.057668 0.017878 -0.011471
v 0.057668 -0.017878 -0.011471
v 0.058798 0.017878 0.000000
v 0.058798 -0.017878 0.000000
v 0.057668 0.017878 0.011471
v 0.057668 -0.017878 0.011471
v 0.054322 0.017878 0.022501
v 0.054322 -0.017878 0.022501
v 0.048889 0.017878 0.032666
v 0.048889 -0.017878 0.032666
v 0.041576 0.017878 0.041576
v 0.041576 -0.017878 0.041576
v 0.032666 0.017878 0.048889
v 0.032666 -0.017878 0.048889
v 0.022501 0.017878 0.054322
v 0.022501 -0.017878 0.054322
v 0.011471 0.017878 0.057668
v 0.011471 -0.017878 0.057668
v 0.000000 0.017878 0.047626
v -0.009291 0.017878 0.046711
v -0.009884 -0.015549 0.049693
v 0.000000 -0.015549 0.050666
v -0.018226 0.017878 0.044001
v -0.019389 -0.015549 0.046809
v -0.026460 0.017878 0.039600
v -0.028149 -0.015549 0.042127
v -0.033677 0.017878 0.033677
v -0.035826 -0.015549 0.035826
v -0.039600 0.017878 0.026460
v -0.042127 -0.015549 0.028149
v -0.044001 0.017878 0.018226
v -0.046809 -0.015549 0.019389
v -0.046711 0.017878 0.009291
v -0.049693 -0.015549 0.009884
v -0.047626 0.017878 0.000000
v -0.050666 -0.015549 0.000000
v -0.046711 0.017878 -0.009291
v -0.049693 -0.015549 -0.009884
v -0.044001 0.017878 -0.018226
v -0.046809 -0.015549 -0.019389
v -0.039600 0.017878 -0.026460
v -0.042127 -0.015549 -0.028149
v -0.033677 0.017878 -0.033677
v -0.035826 -0.015549 -0.035826
v -0.026460 0.017878 -0.039600
v -0.028149 -0.015549 -0.042127
v -0.018226 0.017878 -0.044001
v -0.019389 -0.015549 -0.046809
v -0.009291 0.017878 -0.046711
v -0.009884 -0.015549 -0.049693
v 0.000000 0.017878 -0.047626
v 0.000000 -0.015549 -0.050666
v 0.009291 0.017878 -0.046711
v 0.009884 -0.015549 -0.049693
v 0.018226 0.017878 -0.044001
v 0.019389 -0.015549 -0.046809
v 0.026460 0.017878 -0.039600
v 0.028149 -0.015549 -0.042127
v 0.033677 0.017878 -0.033677
v 0.035826 -0.015549 -0.035826
v 0.039600 0.017878 -0.026460
v 0.042127 -0.015549 -0.028149
v 0.044001 0.017878 -0.018226
v 0.046809 -0.015549 -0.019389
v 0.046711 0.017878 -0.009291
v 0.049693 -0.015549 -0.009884
v 0.047626 0.017878 0.000000
v 0.050666 -0.015549 0.000000
v 0.046711 0.017878 0.009291
v 0.049693 -0.015549 0.009884
v 0.044001 0.017878 0.018226
v 0.046809 -0.015549 0.019389
v 0.039600 0.017878 0.026460
v 0.042127 -0.015549 0.028149
v 0.033677 0.017878 0.033677
v 0.035826 -0.015549 0.035826
v 0.026460 0.017878 0.039600
v 0.028149 -0.015549 0.042127
v 0.018226 0.017878 0.044001
v 0.019389 -0.015549 0.046809
v 0.009291 0.017878 0.046711
v 0.009884 -0.015549 0.049693
vn -0.0000 1.0000 -0.0000
vn -0.0000 -1.0000 -0.0000
vn 0.1951 -0.0000 0.9808
vn -0.1943 -0.0906 -0.9768
vn -0.0000 -0.0000 1.0000
vn -0.1951 -0.0000 0.9808
vn -0.3827 -0.0000 0.9239
vn -0.5556 -0.0000 0.8315
vn -0.7071 -0.0000 0.7071
vn -0.8315 -0.0000 0.5556
vn -0.9239 -0.0000 0.3827
vn -0.9808 -0.0000 0.1951
vn -1.0000 -0.0000 -0.0000
vn -0.9808 -0.0000 -0.1951
vn -0.9239 -0.0000 -0.3827
vn -0.8315 -0.0000 -0.5556
vn -0.7071 -0.0000 -0.7071
vn -0.5556 -0.0000 -0.8315
vn -0.3827 -0.0000 -0.9239
vn -0.1951 -0.0000 -0.9808
vn -0.0000 -0.0000 -1.0000
vn 0.1951 -0.0000 -0.9808
vn 0.3827 -0.0000 -0.9239
vn 0.5556 -0.0000 -0.8315
vn 0.7071 -0.0000 -0.7071
vn 0.8315 -0.0000 -0.5556
vn 0.9239 -0.0000 -0.3827
vn 0.9808 -0.0000 -0.1951
vn 1.0000 -0.0000 -0.0000
vn 0.9808 -0.0000 0.1951
vn 0.9239 -0.0000 0.3827
vn 0.8315 -0.0000 0.5556
vn 0.7071 -0.0000 0.7071
vn 0.5556 -0.0000 0.8315
vn 0.3827 -0.0000 0.9239
vn -0.0000 -0.0906 -0.9959
vn 0.1943 -0.0906 -0.9768
vn 0.3811 -0.0906 -0.9201
vn 0.5533 -0.0906 -0.8281
vn 0.7042 -0.0906 -0.7042
vn 0.8281 -0.0906 -0.5533
vn 0.9201 -0.0906 -0.3811
vn 0.9768 -0.0906 -0.1943
vn 0.9959 -0.0906 -0.0000
vn 0.9768 -0.0906 0.1943
vn 0.9201 -0.0906 0.3811
vn 0.8281 -0.0906 0.5533
vn 0.7042 -0.0906 0.7042
vn 0.5533 -0.0906 0.8281
vn 0.3811 -0.0906 0.9201
vn 0.1943 -0.0906 0.9768
vn -0.0000 -0.0906 0.9959
vn -0.1943 -0.0906 0.9768
vn -0.3811 -0.0906 0.9201
vn -0.5533 -0.0906 0.8281
vn -0.7042 -0.0906 0.7042
vn -0.8281 -0.0906 0.5533
vn -0.9201 -0.0906 0.3811
vn -0.9768 -0.0906 0.1943
vn -0.9959 -0.0906 -0.0000
vn -0.9768 -0.0906 -0.1943
vn -0.9201 -0.0906 -0.3811
vn -0.8281 -0.0906 -0.5533
vn -0.7042 -0.0906 -0.7042
vn -0.5533 -0.0906 -0.8281
vn -0.3811 -0.0906 -0.9201
vt 1.000000 0.500000
vt 1.000000 1.000000
vt 0.968750 1.000000
vt 0.968750 0.500000
vt 0.937500 1.000000
vt 0.937500 0.500000
vt 0.906250 1.000000
vt 0.906250 0.500000
vt 0.875000 1.000000
vt 0.875000 0.500000
vt 0.843750 1.000000
vt 0.843750 0.500000
vt 0.812500 1.000000
vt 0.812500 0.500000
vt 0.781250 1.000000
vt 0.781250 0.500000
vt 0.750000 1.000000
vt 0.750000 0.500000
vt 0.718750 1.000000
vt 0.718750 0.500000
vt 0.687500 1.000000
vt 0.687500 0.500000
vt 0.656250 1.000000
vt 0.656250 0.500000
vt 0.625000 1.000000
vt 0.625000 0.500000
vt 0.593750 1.000000
vt 0.593750 0.500000
vt 0.562500 1.000000
vt 0.562500 0.500000
vt 0.531250 1.000000
vt 0.531250 0.500000
vt 0.500000 1.000000
vt 0.500000 0.500000
vt 0.468750 1.000000
vt 0.468750 0.500000
vt 0.437500 1.000000
vt 0.437500 0.500000
vt 0.406250 1.000000
vt 0.406250 0.500000
vt 0.375000 1.000000
vt 0.375000 0.500000
vt 0.343750 1.000000
vt 0.343750 0.500000
vt 0.312500 1.000000
vt 0.312500 0.500000
vt 0.281250 1.000000
vt 0.281250 0.500000
vt 0.250000 1.000000
vt 0.250000 0.500000
vt 0.218750 1.000000
vt 0.218750 0.500000
vt 0.187500 1.000000
vt 0.187500 0.500000
vt 0.156250 1.000000
vt 0.156250 0.500000
vt 0.125000 1.000000
vt 0.125000 0.500000
vt 0.093750 1.000000
vt 0.093750 0.500000
vt 0.062500 1.000000
vt 0.062500 0.500000
vt 0.296822 0.485388
vt 0.250000 0.490000
vt 0.203178 0.485388
vt 0.158156 0.471731
vt 0.116663 0.449553
vt 0.080294 0.419706
vt 0.050447 0.383337
vt 0.028269 0.341844
vt 0.014612 0.296822
vt 0.010000 0.250000
vt 0.014612 0.203178
vt 0.028269 0.158156
vt 0.050447 0.116663
vt 0.080294 0.080294
vt 0.116663 0.050447
vt 0.158156 0.028269
vt 0.203178 0.014612
vt 0.250000 0.010000
vt 0.296822 0.014612
vt 0.341844 0.028269
vt 0.383337 0.050447
vt 0.419706 0.080294
vt 0.449553 0.116663
vt 0.471731 0.158156
vt 0.485388 0.203178
vt 0.490000 0.250000
vt 0.485388 0.296822
vt 0.471731 0.341844
vt 0.449553 0.383337
vt 0.419706 0.419706
vt 0.383337 0.449553
vt 0.341844 0.471731
vt 0.031250 1.000000
vt 0.031250 0.500000
vt 0.000000 1.000000
vt 0.000000 0.500000
s 1
f 129/1/5 130/4/6 131/3/6 132/2/5
f 130/4/6 133/6/7 134/5/7 131/3/6
f 133/6/7 135/8/8 136/7/8 134/5/7
f 135/8/8 137/10/9 138/9/9 136/7/8
f 137/10/9 139/12/10 140/11/10 138/9/9
f 139/12/10 141/14/11 142/13/11 140/11/10
f 141/14/11 143/16/12 144/15/12 142/13/11
f 143/16/12 145/18/13 146/17/13 144/15/12
f 145/18/13 147/20/14 148/19/14 146/17/13
f 147/20/14 149/22/15 150/21/15 148/19/14
f 149/22/15 151/24/16 152/23/16 150/21/15
f 151/24/16 153/26/17 154/25/17 152/23/16
f 153/26/17 155/28/18 156/27/18 154/25/17
f 155/28/18 157/30/19 158/29/19 156/27/18
f 157/30/19 159/32/20 160/31/20 158/29/19
f 159/32/20 161/34/21 162/33/21 160/31/20
f 161/34/21 163/36/22 164/35/22 162/33/21
f 163/36/22 165/38/23 166/37/23 164/35/22
f 165/38/23 167/40/24 168/39/24 166/37/23
f 167/40/24 169/42/25 170/41/25 168/39/24
f 169/42/25 171/44/26 172/43/26 170/41/25
f 171/44/26 173/46/27 174/45/27 172/43/26
f 173/46/27 175/48/28 176/47/28 174/45/27
f 175/48/28 177/50/29 178/49/29 176/47/28
f 177/50/29 179/52/30 180/51/30 178/49/29
f 179/52/30 181/54/31 182/53/31 180/51/30
f 181/54/31 183/56/32 184/55/32 182/53/31
f 183/56/32 185/58/33 186/57/33 184/55/32
f 185/58/33 187/60/34 188/59/34 186/57/33
f 187/60/34 189/62/35 190/61/35 188/59/34
f 4/63/2 6/94/2 8/93/2 10/92/2 12/91/2 14/90/2 16/89/2 18/88/2 20/87/2 22/86/2 24/85/2 26/84/2 28/83/2 30/82/2 32/81/2 34/80/2 36/79/2 38/78/2 40/77/2 42/76/2 44/75/2 46/74/2 48/73/2 50/72/2 52/71/2 54/70/2 56/69/2 58/68/2 60/67/2 62/66/2 192/65/2 2/64/2
f 189/62/35 191/96/3 64/95/3 190/61/35
f 191/96/3 129/98/5 132/97/5 64/95/3
f 193/1/36 196/2/36 195/3/37 194/4/37
f 194/4/37 195/3/37 198/5/38 197/6/38
f 197/6/38 198/5/38 200/7/39 199/8/39
f 199/8/39 200/7/39 202/9/40 201/10/40
f 201/10/40 202/9/40 204/11/41 203/12/41
f 203/12/41 204/11/41 206/13/42 205/14/42
f 205/14/42 206/13/42 208/15/43 207/16/43
f 207/16/43 208/15/43 210/17/44 209/18/44
f 209/18/44 210/17/44 212/19/45 211/20/45
f 211/20/45 212/19/45 214/21/46 213/22/46
f 213/22/46 214/21/46 216/23/47 215/24/47
f 215/24/47 216/23/47 218/25/48 217/26/48
f 217/26/48 218/25/48 220/27/49 219/28/49
f 219/28/49 220/27/49 222/29/50 221/30/50
f 221/30/50 222/29/50 224/31/51 223/32/51
f 223/32/51 224/31/51 226/33/52 225/34/52
f 225/34/52 226/33/52 228/35/53 227/36/53
f 227/36/53 228/35/53 230/37/54 229/38/54
f 229/38/54 230/37/54 232/39/55 231/40/55
f 231/40/55 232/39/55 234/41/56 233/42/56
f 233/42/56 234/41/56 236/43/57 235/44/57
f 235/44/57 236/43/57 238/45/58 237/46/58
f 237/46/58 238/45/58 240/47/59 239/48/59
f 239/48/59 240/47/59 242/49/60 241/50/60
f 241/50/60 242/49/60 244/51/61 243/52/61
f 243/52/61 244/51/61 246/53/62 245/54/62
f 245/54/62 246/53/62 248/55/63 247/56/63
f 247/56/63 248/55/63 250/57/64 249/58/64
f 249/58/64 250/57/64 252/59/65 251/60/65
f 251/60/65 252/59/65 254/61/66 253/62/66
f 68/63/1 66/64/1 256/65/1 126/66/1 124/67/1 122/68/1 120/69/1 118/70/1 116/71/1 114/72/1 112/73/1 110/74/1 108/75/1 106/76/1 104/77/1 102/78/1 100/79/1 98/80/1 96/81/1 94/82/1 92/83/1 90/84/1 88/85/1 86/86/1 84/87/1 82/88/1 80/89/1 78/90/1 76/91/1 74/92/1 72/93/1 70/94/1
f 253/62/66 254/61/66 128/95/4 255/96/4
f 255/96/4 128/95/4 196/97/36 193/98/36
f 1/1/1 65/1/1 67/4/1 3/4/1
f 3/4/1 67/4/1 69/6/1 5/6/1
f 5/6/1 69/6/1 71/8/1 7/8/1
f 7/8/1 71/8/1 73/10/1 9/10/1
f 9/10/1 73/10/1 75/12/1 11/12/1
f 11/12/1 75/12/1 77/14/1 13/14/1
f 13/14/1 77/14/1 79/16/1 15/16/1
f 15/16/1 79/16/1 81/18/1 17/18/1
f 17/18/1 81/18/1 83/20/1 19/20/1
f 19/20/1 83/20/1 85/22/1 21/22/1
f 21/22/1 85/22/1 87/24/1 23/24/1
f 23/24/1 87/24/1 89/26/1 25/26/1
f 25/26/1 89/26/1 91/28/1 27/28/1
f 27/28/1 91/28/1 93/30/1 29/30/1
f 29/30/1 93/30/1 95/32/1 31/32/1
f 31/32/1 95/32/1 97/34/1 33/34/1
f 33/34/1 97/34/1 99/36/1 35/36/1
f 35/36/1 99/36/1 101/38/1 37/38/1
f 37/38/1 101/38/1 103/40/1 39/40/1
f 39/40/1 103/40/1 105/42/1 41/42/1
f 41/42/1 105/42/1 107/44/1 43/44/1
f 43/44/1 107/44/1 109/46/1 45/46/1
f 45/46/1 109/46/1 111/48/1 47/48/1
f 47/48/1 111/48/1 113/50/1 49/50/1
f 49/50/1 113/50/1 115/52/1 51/52/1
f 51/52/1 115/52/1 117/54/1 53/54/1
f 53/54/1 117/54/1 119/56/1 55/56/1
f 55/56/1 119/56/1 121/58/1 57/58/1
f 57/58/1 121/58/1 123/60/1 59/60/1
f 59/60/1 123/60/1 125/62/1 61/62/1
f 61/62/1 125/62/1 127/96/1 63/96/1
f 63/96/1 127/96/1 65/98/1 1/98/1
