# Blender 4.1.1
# www.blender.org
mtllib rack.mtl
o Cube
v 0.268457 0.046091 -0.060174
v 0.268457 0.033576 -0.060174
v 0.268457 0.046091 0.060687
v 0.268457 0.033576 0.060687
v -0.207209 0.046091 -0.060174
v -0.207209 0.033576 -0.060174
v -0.207209 0.046091 0.060687
v -0.207209 0.033576 0.060687
v -0.167978 0.033576 -0.001588
v -0.167983 0.046091 -0.001588
v -0.147500 0.033576 0.010456
v -0.147505 0.046091 0.010456
v -0.156987 0.033576 0.012795
v -0.156993 0.046091 0.012795
v -0.155741 0.033576 0.012915
v -0.155747 0.046091 0.012915
v -0.143791 0.033576 -0.006323
v -0.143797 0.046091 -0.006323
v -0.153243 0.033576 0.012795
v -0.153249 0.046091 0.012795
v -0.167767 0.033576 -0.002822
v -0.167772 0.046091 -0.002822
v -0.154489 0.033576 0.012915
v -0.154495 0.046091 0.012915
v -0.167438 0.033576 -0.004030
v -0.167444 0.046091 -0.004030
v -0.162216 0.033576 -0.010864
v -0.162221 0.046091 -0.010864
v -0.142614 0.033576 0.003378
v -0.142619 0.046091 0.003378
v -0.146523 0.033576 0.009672
v -0.146529 0.046091 0.009672
v -0.164603 0.033576 0.008797
v -0.164609 0.046091 0.008797
v -0.143001 0.033576 0.004568
v -0.143006 0.046091 0.004568
v -0.142193 0.033576 0.000912
v -0.142198 0.046091 0.000912
v -0.145212 0.033576 -0.008381
v -0.145218 0.046091 -0.008381
v -0.142343 0.033576 0.002155
v -0.142349 0.046091 0.002155
v -0.143237 0.033576 -0.005201
v -0.143242 0.046091 -0.005201
v -0.142793 0.033576 -0.004030
v -0.142798 0.046091 -0.004030
v -0.161684 0.033576 0.011142
v -0.161689 0.046091 0.011142
v -0.150229 0.033576 -0.012027
v -0.150235 0.046091 -0.012027
v -0.145627 0.033576 0.008797
v -0.145633 0.046091 0.008797
v -0.160575 0.033576 0.011724
v -0.160581 0.046091 0.011724
v -0.144820 0.033576 0.007841
v -0.144826 0.046091 0.007841
v -0.158820 0.033576 -0.012442
v -0.158826 0.046091 -0.012442
v -0.160001 0.033576 -0.012027
v -0.160007 0.046091 -0.012027
v -0.165018 0.033576 -0.008381
v -0.165024 0.046091 -0.008381
v -0.144109 0.033576 0.006810
v -0.144114 0.046091 0.006810
v -0.156366 0.033576 -0.012923
v -0.156371 0.046091 -0.012923
v -0.167230 0.033576 0.004568
v -0.167236 0.046091 0.004568
v -0.166730 0.033576 0.005716
v -0.166736 0.046091 0.005716
v -0.151410 0.033576 -0.012442
v -0.151416 0.046091 -0.012442
v -0.163707 0.033576 0.009672
v -0.163713 0.046091 0.009672
v -0.148547 0.033576 0.011142
v -0.148552 0.046091 0.011142
v -0.149655 0.033576 0.011724
v -0.149661 0.046091 0.011724
v -0.162731 0.033576 0.010456
v -0.162737 0.046091 0.010456
v -0.159416 0.033576 0.012196
v -0.159421 0.046091 0.012196
v -0.153865 0.033576 -0.012923
v -0.153870 0.046091 -0.012923
v -0.152626 0.033576 -0.012742
v -0.152632 0.046091 -0.012742
v -0.158216 0.033576 0.012554
v -0.158222 0.046091 0.012554
v -0.146065 0.033576 -0.009298
v -0.146070 0.046091 -0.009298
v -0.164166 0.033576 -0.009298
v -0.164171 0.046091 -0.009298
v -0.144452 0.033576 -0.007387
v -0.144458 0.046091 -0.007387
v -0.168068 0.033576 -0.000339
v -0.168074 0.046091 -0.000339
v -0.161137 0.033576 -0.011499
v -0.161142 0.046091 -0.011499
v -0.168038 0.033576 0.000912
v -0.168044 0.046091 0.000912
v -0.155115 0.033576 -0.012983
v -0.155121 0.046091 -0.012983
v -0.165411 0.033576 0.007841
v -0.165416 0.046091 0.007841
v -0.152015 0.033576 0.012554
v -0.152020 0.046091 0.012554
v -0.166122 0.033576 0.006810
v -0.166127 0.046091 0.006810
v -0.166994 0.033576 -0.005201
v -0.167000 0.046091 -0.005201
v -0.148015 0.033576 -0.010864
v -0.148020 0.046091 -0.010864
v -0.142162 0.033576 -0.000339
v -0.142168 0.046091 -0.000339
v -0.142253 0.033576 -0.001588
v -0.142259 0.046091 -0.001588
v -0.167617 0.033576 0.003378
v -0.167623 0.046091 0.003378
v -0.147002 0.033576 -0.010128
v -0.147008 0.046091 -0.010128
v -0.167887 0.033576 0.002155
v -0.167893 0.046091 0.002155
v -0.150815 0.033576 0.012196
v -0.150820 0.046091 0.012196
v -0.149094 0.033576 -0.011499
v -0.149100 0.046091 -0.011499
v -0.166439 0.033576 -0.006323
v -0.166445 0.046091 -0.006323
v -0.143501 0.033576 0.005716
v -0.143506 0.046091 0.005716
v -0.165779 0.033576 -0.007387
v -0.165784 0.046091 -0.007387
v -0.142464 0.033576 -0.002822
v -0.142469 0.046091 -0.002822
v -0.157605 0.033576 -0.012742
v -0.157610 0.046091 -0.012742
v -0.163229 0.033576 -0.010128
v -0.163234 0.046091 -0.010128
vn 1.0000 -0.0000 -0.0000
vn -0.0000 -0.0000 -1.0000
vn -1.0000 -0.0000 -0.0000
vn -0.0000 -1.0000 -0.0000
vn 0.9647 0.0004 -0.2633
vn 0.9857 0.0004 -0.1687
vn 0.0468 -0.0000 -0.9989
vn 0.1409 0.0001 -0.9900
vn -0.9647 -0.0004 -0.2633
vn -0.9347 -0.0004 -0.3554
vn -0.7310 -0.0003 -0.6824
vn -0.6614 -0.0003 -0.7500
vn -0.8734 -0.0004 0.4870
vn -0.9164 -0.0004 0.4002
vn -0.9927 -0.0004 0.1208
vn -0.9997 -0.0004 0.0242
vn 0.2352 0.0001 -0.9720
vn -0.2352 -0.0001 -0.9720
vn -0.1409 -0.0001 -0.9900
vn -0.0468 -0.0000 -0.9989
vn 0.5043 0.0002 -0.8636
vn 0.5856 0.0003 -0.8106
vn 0.8222 0.0004 0.5693
vn 0.7632 0.0003 0.6462
vn 0.3281 0.0001 -0.9447
vn 0.4181 0.0002 -0.9084
vn -0.9508 -0.0004 0.3097
vn 0.4617 0.0002 0.8870
vn 0.3735 0.0002 0.9276
vn -0.4181 -0.0002 -0.9084
vn -0.3281 -0.0001 -0.9447
vn 0.9347 0.0004 -0.3554
vn -0.4617 -0.0002 0.8870
vn -0.5456 -0.0002 0.8381
vn 0.6614 0.0003 -0.7500
vn 0.6970 0.0003 0.7171
vn 0.9974 0.0004 -0.0726
vn 0.7936 0.0004 -0.6084
vn 0.8488 0.0004 -0.5288
vn -0.8488 -0.0004 -0.5288
vn -0.7936 -0.0004 -0.6084
vn -0.5043 -0.0002 -0.8636
vn 0.6243 0.0003 0.7812
vn -0.6243 -0.0003 0.7812
vn -0.6970 -0.0003 0.7171
vn 0.1881 0.0001 0.9821
vn 0.0937 -0.0000 0.9956
vn 0.2819 0.0001 0.9594
vn 0.8734 0.0004 0.4870
vn -0.7632 -0.0003 0.6462
vn -0.8222 -0.0004 0.5693
vn 0.9997 0.0004 0.0242
vn 0.9927 0.0004 0.1208
vn -0.9763 -0.0004 0.2163
vn -0.8960 -0.0004 -0.4441
vn -0.9974 -0.0004 -0.0726
vn -0.9857 -0.0004 -0.1687
vn 0.9164 0.0004 0.4002
vn -0.5856 -0.0003 -0.8106
vn -0.1881 -0.0001 0.9821
vn -0.2819 -0.0001 0.9594
vn 0.5456 0.0002 0.8381
vn -0.3735 -0.0002 0.9276
vn 0.7310 0.0003 -0.6824
vn -0.0000 -0.0000 1.0000
vn -0.0937 -0.0000 0.9956
vn 0.9763 0.0004 0.2163
vn 0.9508 0.0004 0.3097
vn 0.8960 0.0004 -0.4441
vt 0.375000 0.000000
vt 0.625000 0.000000
vt 0.625000 0.250000
vt 0.375000 0.250000
vt 0.375000 0.500000
vt 0.625000 0.500000
vt 0.625000 0.750000
vt 0.375000 0.750000
vt 0.625000 1.000000
vt 0.375000 1.000000
vt 0.125000 0.500000
vt 0.125000 0.750000
vt 0.340816 0.626233
vt 0.340831 0.623644
vt 0.340911 0.621073
vt 0.341053 0.618544
vt 0.341256 0.616081
vt 0.341519 0.613707
vt 0.341839 0.611444
vt 0.342212 0.609312
vt 0.342637 0.607333
vt 0.343108 0.605524
vt 0.343621 0.603902
vt 0.344171 0.602483
vt 0.344754 0.601280
vt 0.345363 0.600303
vt 0.345994 0.599562
vt 0.346639 0.599065
vt 0.347294 0.598815
vt 0.347952 0.598815
vt 0.348607 0.599065
vt 0.349253 0.599563
vt 0.349884 0.600303
vt 0.350493 0.601280
vt 0.351076 0.602483
vt 0.351626 0.603902
vt 0.352139 0.605524
vt 0.352610 0.607333
vt 0.353034 0.609312
vt 0.353408 0.611443
vt 0.353728 0.613707
vt 0.353991 0.616081
vt 0.354194 0.618544
vt 0.354336 0.621073
vt 0.354415 0.623643
vt 0.354431 0.626232
vt 0.875000 0.500000
vt 0.875000 0.750000
vt 0.659187 0.626232
vt 0.659171 0.623644
vt 0.659092 0.621073
vt 0.658950 0.618544
vt 0.658747 0.616081
vt 0.658484 0.613707
vt 0.658164 0.611443
vt 0.657790 0.609312
vt 0.657366 0.607333
vt 0.656895 0.605524
vt 0.656382 0.603902
vt 0.655832 0.602483
vt 0.655249 0.601280
vt 0.654640 0.600303
vt 0.654009 0.599562
vt 0.653363 0.599065
vt 0.652709 0.598815
vt 0.652050 0.598815
vt 0.651396 0.599065
vt 0.650750 0.599562
vt 0.650119 0.600303
vt 0.649510 0.601280
vt 0.648927 0.602483
vt 0.648377 0.603902
vt 0.647864 0.605524
vt 0.647393 0.607333
vt 0.646969 0.609312
vt 0.646595 0.611443
vt 0.646275 0.613707
vt 0.646012 0.616081
vt 0.645809 0.618544
vt 0.645667 0.621073
vt 0.645588 0.623643
vt 0.645572 0.626232
vt 0.030769 0.500000
vt 0.015385 0.500000
vt 0.230769 0.500000
vt 0.215385 0.500000
vt 0.446154 0.500000
vt 0.430769 0.500000
vt 0.369231 0.500000
vt 0.353846 0.500000
vt 0.353846 0.500000
vt 0.569231 0.500000
vt 0.553846 0.500000
vt 0.507692 0.500000
vt 0.492308 0.500000
vt 0.200000 0.500000
vt 0.276923 0.500000
vt 0.261538 0.500000
vt 0.246154 0.500000
vt 0.153846 0.500000
vt 0.138462 0.500000
vt 0.892308 0.500000
vt 0.876923 0.500000
vt 0.184615 0.500000
vt 0.169231 0.500000
vt 0.538462 0.500000
vt 0.815385 0.500000
vt 0.800000 0.500000
vt 0.307692 0.500000
vt 0.292308 0.500000
vt 0.046154 0.500000
vt 0.046154 0.500000
vt 0.661538 0.500000
vt 0.646154 0.500000
vt 0.123077 0.500000
vt 0.861538 0.500000
vt 0.861538 0.500000
vt 0.000000 0.500000
vt 0.092308 0.500000
vt 0.076923 0.500000
vt 0.400000 0.500000
vt 0.384615 0.500000
vt 0.645619 0.628815
vt 0.645730 0.631368
vt 0.645903 0.633867
vt 0.646136 0.636288
vt 0.646428 0.638610
vt 0.646775 0.640810
vt 0.647175 0.642867
vt 0.647623 0.644764
vt 0.648115 0.646481
vt 0.648648 0.648003
vt 0.649215 0.649316
vt 0.649812 0.650407
vt 0.650432 0.651267
vt 0.651071 0.651887
vt 0.651722 0.652261
vt 0.652380 0.652386
vt 0.653037 0.652261
vt 0.653688 0.651887
vt 0.654327 0.651267
vt 0.654947 0.650407
vt 0.655544 0.649316
vt 0.656111 0.648003
vt 0.656644 0.646481
vt 0.657136 0.644764
vt 0.657584 0.642867
vt 0.657984 0.640810
vt 0.658331 0.638610
vt 0.658623 0.636288
vt 0.658856 0.633867
vt 0.659029 0.631368
vt 0.659140 0.628815
vt 0.323077 0.500000
vt 0.323077 0.500000
vt 0.846154 0.500000
vt 0.630769 0.500000
vt 0.615385 0.500000
vt 0.769231 0.500000
vt 0.753846 0.500000
vt 0.784615 0.500000
vt 0.784615 0.500000
vt 0.907692 0.500000
vt 0.600000 0.500000
vt 0.584615 0.500000
vt 0.984615 0.500000
vt 0.969231 0.500000
vt 0.523077 0.500000
vt 0.415385 0.500000
vt 0.476923 0.500000
vt 0.461538 0.500000
vt 0.461538 0.500000
vt 0.923077 0.500000
vt 0.338462 0.500000
vt 1.000000 0.500000
vt 0.707692 0.500000
vt 0.707692 0.500000
vt 0.692308 0.500000
vt 0.830769 0.500000
vt 0.676923 0.500000
vt 0.107692 0.500000
vt 0.738461 0.500000
vt 0.723077 0.500000
vt 0.354383 0.628815
vt 0.354273 0.631368
vt 0.354100 0.633867
vt 0.353867 0.636288
vt 0.353575 0.638610
vt 0.353228 0.640810
vt 0.352828 0.642867
vt 0.352380 0.644764
vt 0.351888 0.646481
vt 0.351355 0.648003
vt 0.350788 0.649316
vt 0.350191 0.650407
vt 0.349571 0.651267
vt 0.348932 0.651887
vt 0.348281 0.652261
vt 0.347623 0.652386
vt 0.346966 0.652261
vt 0.346315 0.651887
vt 0.345676 0.651267
vt 0.345055 0.650407
vt 0.344459 0.649316
vt 0.343892 0.648003
vt 0.343359 0.646481
vt 0.342867 0.644764
vt 0.342418 0.642867
vt 0.342019 0.640810
vt 0.341672 0.638610
vt 0.341380 0.636288
vt 0.341147 0.633867
vt 0.340974 0.631368
vt 0.340863 0.628815
vt 0.953846 0.500000
vt 0.938462 0.500000
vt 0.061539 0.500000
vt 0.061539 0.500000
s 0
f 1/1/1 3/4/1 4/3/1 2/2/1
f 3/4/2 4/3/2 8/6/2 7/5/2
f 7/5/3 5/8/3 6/7/3 8/6/3
f 5/8/2 1/10/2 2/9/2 6/7/2
f 3/11/4 7/5/4 5/8/4 96/46/4 100/45/4 122/44/4 118/43/4 68/42/4 70/41/4 108/40/4 104/39/4 34/38/4 74/37/4 80/36/4 48/35/4 54/34/4 82/33/4 88/32/4 14/31/4 16/30/4 24/29/4 20/28/4 106/27/4 124/26/4 78/25/4 76/24/4 12/23/4 32/22/4 52/21/4 56/20/4 64/19/4 130/18/4 36/17/4 30/16/4 42/15/4 38/14/4 114/13/4 1/12/4
f 8/6/4 6/7/4 95/82/4 99/81/4 121/80/4 117/79/4 67/78/4 69/77/4 107/76/4 103/75/4 33/74/4 73/73/4 79/72/4 47/71/4 53/70/4 81/69/4 87/68/4 13/67/4 15/66/4 23/65/4 19/64/4 105/63/4 123/62/4 77/61/4 75/60/4 11/59/4 31/58/4 51/57/4 55/56/4 63/55/4 129/54/4 35/53/4 29/52/4 41/51/4 37/50/4 113/49/4 2/48/4 4/47/4
s 1
f 117/83/5 121/84/6 122/84/6 118/83/5
f 15/85/7 13/86/8 14/86/8 16/85/7
f 29/87/9 35/88/10 36/88/10 30/87/9
f 51/89/11 31/91/12 32/90/12 52/89/11
f 17/92/13 43/93/14 44/93/14 18/92/13
f 115/94/15 113/95/16 114/95/16 116/94/15
f 13/86/8 87/96/17 88/96/17 14/86/8
f 105/97/18 19/98/19 20/98/19 106/97/18
f 23/99/20 15/85/7 16/85/7 24/99/20
f 47/100/21 79/101/22 80/101/22 48/100/21
f 131/102/23 61/103/24 62/103/24 132/102/23
f 81/104/25 53/105/26 54/105/26 82/104/25
f 43/93/14 45/106/27 46/106/27 44/93/14
f 97/107/28 59/108/29 60/108/29 98/107/28
f 19/98/19 23/99/20 24/99/20 20/98/19
f 77/109/30 123/110/31 124/110/31 78/109/30
f 67/111/32 117/83/5 118/83/5 68/112/32
f 125/113/33 111/114/34 112/114/34 126/113/33
f 79/101/22 73/115/35 74/115/35 80/101/22
f 61/103/24 91/117/36 92/116/36 62/103/24
f 121/84/6 99/118/37 100/118/37 122/84/6
f 103/119/38 107/120/39 108/120/39 104/119/38
f 63/121/40 55/122/41 56/122/41 64/121/40
s 0
f 6/7/4 2/48/4 113/49/4 115/153/4 133/152/4 45/151/4 43/150/4 17/149/4 93/148/4 39/147/4 89/146/4 119/145/4 111/144/4 125/143/4 49/142/4 71/141/4 85/140/4 83/139/4 101/138/4 65/137/4 135/136/4 57/135/4 59/134/4 97/133/4 27/132/4 137/131/4 91/130/4 61/129/4 131/128/4 127/127/4 109/126/4 25/125/4 21/124/4 9/123/4 95/82/4
s 1
f 75/154/42 77/109/30 78/109/30 76/155/42
f 91/117/36 137/156/43 138/156/43 92/116/36
f 119/157/44 89/158/45 90/158/45 120/157/44
f 135/159/46 65/160/47 66/160/47 136/159/46
f 59/108/29 57/162/48 58/161/48 60/108/29
f 127/163/49 131/102/23 132/102/23 128/163/49
f 39/164/50 93/165/51 94/165/51 40/164/50
f 53/105/26 47/100/21 48/100/21 54/105/26
f 95/166/52 9/167/53 10/167/53 96/166/52
f 45/106/27 133/168/54 134/168/54 46/106/27
f 35/88/10 129/169/55 130/169/55 36/88/10
f 37/170/56 41/172/57 42/171/57 38/170/56
f 109/173/58 127/163/49 128/163/49 110/173/58
f 133/168/54 115/94/15 116/94/15 134/168/54
f 41/172/57 29/87/9 30/87/9 42/171/57
f 11/174/59 75/154/42 76/155/42 12/174/59
f 99/175/37 95/166/52 96/166/52 100/175/37
f 85/176/60 71/178/61 72/178/61 86/177/60
f 27/179/62 97/107/28 98/107/28 28/179/62
f 87/96/17 81/104/25 82/104/25 88/96/17
f 49/180/63 125/113/33 126/113/33 50/180/63
f 137/156/43 27/179/62 28/179/62 138/156/43
f 31/91/12 11/174/59 12/174/59 32/90/12
f 123/110/31 105/97/18 106/97/18 124/110/31
f 33/181/64 103/119/38 104/119/38 34/181/64
f 65/160/47 101/182/65 102/182/65 66/160/47
f 129/169/55 63/121/40 64/121/40 130/169/55
f 83/183/66 85/176/60 86/177/60 84/183/66
f 73/115/35 33/181/64 34/181/64 74/115/35
f 111/114/34 119/157/44 120/157/44 112/114/34
f 93/165/51 17/92/13 18/92/13 94/165/51
f 89/158/45 39/164/50 40/164/50 90/158/45
s 0
f 5/8/4 1/12/4 114/13/4 116/214/4 134/213/4 46/212/4 44/211/4 18/210/4 94/209/4 40/208/4 90/207/4 120/206/4 112/205/4 126/204/4 50/203/4 72/202/4 86/201/4 84/200/4 102/199/4 66/198/4 136/197/4 58/196/4 60/195/4 98/194/4 28/193/4 138/192/4 92/191/4 62/190/4 132/189/4 128/188/4 110/187/4 26/186/4 22/185/4 10/184/4 96/46/4
s 1
f 9/167/53 21/215/67 22/215/67 10/167/53
f 25/216/68 109/173/58 110/173/58 26/216/68
f 107/120/39 69/218/69 70/217/69 108/120/39
f 55/122/41 51/89/11 52/89/11 56/122/41
f 21/215/67 25/216/68 26/216/68 22/215/67
f 71/178/61 49/180/63 50/180/63 72/178/61
f 69/218/69 67/111/32 68/112/32 70/217/69
f 57/162/48 135/159/46 136/159/46 58/161/48
f 113/95/16 37/170/56 38/170/56 114/95/16
f 101/182/65 83/183/66 84/183/66 102/182/65
o Cube.001
v 0.268457 -0.044175 -0.060174
v 0.268457 -0.056690 -0.060174
v 0.268457 -0.044175 0.060687
v 0.268457 -0.056690 0.060687
v -0.207209 -0.044175 -0.060174
v -0.207209 -0.056690 -0.060174
v -0.207209 -0.044175 0.060687
v -0.207209 -0.056690 0.060687
vn 1.0000 -0.0000 -0.0000
vn -0.0000 -0.0000 1.0000
vn -1.0000 -0.0000 -0.0000
vn -0.0000 -0.0000 -1.0000
vn -0.0000 1.0000 -0.0000
vn -0.0000 -1.0000 -0.0000
vt 0.375000 0.000000
vt 0.625000 0.000000
vt 0.625000 0.250000
vt 0.375000 0.250000
vt 0.625000 0.500000
vt 0.375000 0.500000
vt 0.625000 0.750000
vt 0.375000 0.750000
vt 0.625000 1.000000
vt 0.375000 1.000000
vt 0.125000 0.500000
vt 0.125000 0.750000
vt 0.875000 0.500000
vt 0.875000 0.750000
s 0
f 139/219/70 141/222/70 142/221/70 140/220/70
f 141/222/71 145/224/71 146/223/71 142/221/71
f 145/224/72 143/226/72 144/225/72 146/223/72
f 143/226/73 139/228/73 140/227/73 144/225/73
f 141/229/74 139/230/74 143/226/74 145/224/74
f 146/223/75 144/225/75 140/232/75 142/231/75
o Cube.002
v 0.260512 -0.116567 -0.067830
v 0.260512 0.070628 -0.067830
v 0.260512 -0.116567 0.067927
v 0.260512 0.070628 0.067927
v 0.272560 -0.116567 -0.067830
v 0.272560 0.070628 -0.067830
v 0.272560 -0.116567 0.067927
v 0.272560 0.070628 0.067927
vn -1.0000 -0.0000 -0.0000
vn -0.0000 -0.0000 1.0000
vn 1.0000 -0.0000 -0.0000
vn -0.0000 -0.0000 -1.0000
vn -0.0000 -1.0000 -0.0000
vn -0.0000 1.0000 -0.0000
vt 0.375000 0.000000
vt 0.625000 0.000000
vt 0.625000 0.250000
vt 0.375000 0.250000
vt 0.625000 0.500000
vt 0.375000 0.500000
vt 0.625000 0.750000
vt 0.375000 0.750000
vt 0.625000 1.000000
vt 0.375000 1.000000
vt 0.125000 0.500000
vt 0.125000 0.750000
vt 0.875000 0.500000
vt 0.875000 0.750000
s 0
f 147/233/76 149/236/76 150/235/76 148/234/76
f 149/236/77 153/238/77 154/237/77 150/235/77
f 153/238/78 151/240/78 152/239/78 154/237/78
f 151/240/79 147/242/79 148/241/79 152/239/79
f 149/243/80 147/244/80 151/240/80 153/238/80
f 154/237/81 152/239/81 148/246/81 150/245/81
o Cube.003
v -0.211525 -0.116567 -0.067830
v -0.211525 0.070628 -0.067830
v -0.211525 -0.116567 0.067927
v -0.211525 0.070628 0.067927
v -0.199477 -0.116567 -0.067830
v -0.199477 0.070628 -0.067830
v -0.199477 -0.116567 0.067927
v -0.199477 0.070628 0.067927
vn -1.0000 -0.0000 -0.0000
vn -0.0000 -0.0000 1.0000
vn 1.0000 -0.0000 -0.0000
vn -0.0000 -0.0000 -1.0000
vn -0.0000 -1.0000 -0.0000
vn -0.0000 1.0000 -0.0000
vt 0.375000 0.000000
vt 0.625000 0.000000
vt 0.625000 0.250000
vt 0.375000 0.250000
vt 0.625000 0.500000
vt 0.375000 0.500000
vt 0.625000 0.750000
vt 0.375000 0.750000
vt 0.625000 1.000000
vt 0.375000 1.000000
vt 0.125000 0.500000
vt 0.125000 0.750000
vt 0.875000 0.500000
vt 0.875000 0.750000
s 0
f 155/247/82 157/250/82 158/249/82 156/248/82
f 157/250/83 161/252/83 162/251/83 158/249/83
f 161/252/84 159/254/84 160/253/84 162/251/84
f 159/254/85 155/256/85 156/255/85 160/253/85
f 157/257/86 155/258/86 159/254/86 161/252/86
f 162/251/87 160/253/87 156/260/87 158/259/87
